<svg width="10" height="10" viewBox="0 0 10 10" fill="none" xmlns="http://www.w3.org/2000/svg">
<path d="M6.60714 8.32496C6.06419 8.57709 5.46154 8.7412 4.82699 8.7412C2.43732 8.7412 0.500114 6.41382 0.500114 5.82245C0.500114 5.48723 1.12255 4.59424 2.097 3.8835M8.63464 6.75784C8.96582 6.35945 9.15387 6.00669 9.15387 5.82245C9.15387 5.23107 7.21666 2.90369 4.82699 2.90369C5.87844 2.90369 6.7308 3.74925 6.7308 4.7923M4.82697 6.6809C3.77552 6.6809 2.92315 5.83534 2.92315 4.7923M9.50002 2.90375C8.18211 1.81303 6.6435 1.18683 5.00007 1.18683C4.40772 1.18683 3.829 1.26818 3.26932 1.42331M0.500114 2.90375C0.622276 2.80264 0.746335 2.70553 0.872198 2.61254M0.5 0.500031L8.85705 8.93744" stroke="#070721" stroke-linecap="round"/>
</svg>
