<svg width="10" height="10" viewBox="0 0 10 10" fill="none" xmlns="http://www.w3.org/2000/svg">
<path d="M4.82692 2.95453C2.43723 2.95453 0.5 5.26514 0.5 5.85226C0.5 6.43937 2.43723 8.74998 4.82692 8.74998C7.21662 8.74998 9.15385 6.43937 9.15385 5.85226C9.15385 5.26514 7.21662 2.95453 4.82692 2.95453ZM4.82692 2.95453C3.77546 2.95453 2.9231 3.79399 2.9231 4.82953C2.9231 5.86506 3.77548 6.70453 4.82694 6.70453C5.87841 6.70453 6.73079 5.86506 6.73079 4.82953C6.73079 3.79399 5.87839 2.95453 4.82692 2.95453ZM9.5 2.95455C8.18208 1.87169 6.64345 1.25 5 1.25C3.35655 1.25 1.81792 1.87169 0.5 2.95455" stroke="#070721" stroke-linecap="round"/>
</svg>
