<svg width="16" height="14" viewBox="0 0 16 14" fill="none" xmlns="http://www.w3.org/2000/svg">
<path d="M7.74039 3.93179C4.15584 3.93179 1.25 7.39772 1.25 8.27838C1.25 9.15905 4.15584 12.625 7.74039 12.625C11.3249 12.625 14.2308 9.15905 14.2308 8.27838C14.2308 7.39772 11.3249 3.93179 7.74039 3.93179ZM7.74039 3.93179C6.16319 3.93179 4.88464 5.19099 4.88464 6.74429C4.88464 8.29759 6.16322 9.55679 7.74041 9.55679C9.31761 9.55679 10.5962 8.29759 10.5962 6.74429C10.5962 5.19099 9.31758 3.93179 7.74039 3.93179ZM14.75 3.93182C12.7731 2.30753 10.4652 1.375 8 1.375C5.53482 1.375 3.22688 2.30753 1.25 3.93182" stroke="#070721" stroke-linecap="round"/>
</svg>
