<svg width="16" height="15" viewBox="0 0 16 15" fill="none" xmlns="http://www.w3.org/2000/svg">
<path d="M10.4107 12.9874C9.59629 13.3656 8.69232 13.6118 7.74049 13.6118C4.15598 13.6118 1.25017 10.1207 1.25017 9.23367C1.25017 8.73085 2.18382 7.39135 3.6455 6.32525M13.452 10.6368C13.9487 10.0392 14.2308 9.51004 14.2308 9.23367C14.2308 8.34661 11.325 4.85553 7.74049 4.85553C9.31767 4.85553 10.5962 6.12387 10.5962 7.68844M7.74046 10.5214C6.16328 10.5214 4.88472 9.25302 4.88472 7.68844M14.75 4.85562C12.7732 3.21954 10.4653 2.28025 8.0001 2.28025C7.11158 2.28025 6.2435 2.40227 5.40397 2.63496M1.25017 4.85562C1.43341 4.70396 1.6195 4.5583 1.8083 4.41881M1.25 1.25005L13.7856 13.9062" stroke="#070721" stroke-linecap="round"/>
</svg>
