<svg aria-hidden="true" style="position: absolute; width: 0; height: 0; overflow: hidden;" version="1.1" xmlns="http://www.w3.org/2000/svg" xmlns:xlink="http://www.w3.org/1999/xlink">
<defs>
<symbol id="icon-readMoreBtn" viewBox="0 0 31 32">
<path stroke-linejoin="round" stroke-linecap="round" stroke-miterlimit="4" stroke-width="1.28" d="M6.24 25.425l18.233-18.24M24.473 7.185h-9.82M24.473 7.185l0 9.82"></path>
</symbol>
<symbol id="icon-save" viewBox="0 0 31 32">
<path stroke-linejoin="round" stroke-linecap="round" stroke-miterlimit="4" stroke-width="1.28" d="M15.356 4.785c1.617 0 3.102 0.155 4.279 0.334 1.49 0.227 2.658 1.247 2.99 2.674 0.401 1.722 0.795 4.341 0.727 7.86-0.075 3.882-0.641 6.683-1.187 8.511-0.148 0.494-0.49 0.748-0.876 0.814-0.404 0.068-0.903-0.066-1.309-0.47-0.738-0.735-1.584-1.529-2.364-2.142-0.389-0.306-0.777-0.579-1.136-0.779-0.339-0.188-0.737-0.359-1.124-0.359-0.381 0-0.792 0.168-1.151 0.352-0.383 0.197-0.807 0.466-1.24 0.772-0.869 0.613-1.83 1.408-2.678 2.144-0.447 0.388-0.974 0.48-1.389 0.367-0.401-0.109-0.738-0.417-0.842-0.952-0.357-1.841-0.696-4.559-0.696-8.246 0-3.678 0.379-6.272 0.756-7.943 0.313-1.384 1.442-2.37 2.894-2.594 1.187-0.183 2.698-0.344 4.346-0.344z"></path>
</symbol>
</defs>
</svg>