<?xml version="1.0" encoding="UTF-8"?>
<svg xmlns="http://www.w3.org/2000/svg" xmlns:xlink="http://www.w3.org/1999/xlink" width="0" height="0">
<symbol id="eye-closed-desk" width="20" height="19" viewBox="0 0 20 19" fill="none"><path d="M13.2143 16.6499C12.1284 17.1542 10.9231 17.4824 9.65398 17.4824C4.87465 17.4824 1.00023 12.8276 1.00023 11.6449C1.00023 10.9745 2.24509 9.18847 4.19399 7.76701M17.2693 13.5157C17.9316 12.7189 18.3077 12.0134 18.3077 11.6449C18.3077 10.4621 14.4333 5.80738 9.65398 5.80738C11.7569 5.80738 13.4616 7.49849 13.4616 9.58459M9.65395 13.3618C7.55104 13.3618 5.8463 11.6707 5.8463 9.58459M19 5.80749C16.3642 3.62606 13.287 2.37366 10.0001 2.37366C8.81545 2.37366 7.65799 2.53636 6.53863 2.84662M1.00023 5.80749C1.24455 5.60528 1.49267 5.41106 1.7444 5.22508M1 1.00006L17.7141 17.8749" stroke-linecap="round"/></symbol><symbol id="eye-closed-mob" width="10" height="10" viewBox="0 0 10 10" fill="none"><path d="M6.60714 8.32496C6.06419 8.57709 5.46154 8.7412 4.82699 8.7412C2.43732 8.7412 0.500114 6.41382 0.500114 5.82245C0.500114 5.48723 1.12255 4.59424 2.097 3.8835M8.63464 6.75784C8.96582 6.35945 9.15387 6.00669 9.15387 5.82245C9.15387 5.23107 7.21666 2.90369 4.82699 2.90369C5.87844 2.90369 6.7308 3.74925 6.7308 4.7923M4.82697 6.6809C3.77552 6.6809 2.92315 5.83534 2.92315 4.7923M9.50002 2.90375C8.18211 1.81303 6.6435 1.18683 5.00007 1.18683C4.40772 1.18683 3.829 1.26818 3.26932 1.42331M0.500114 2.90375C0.622276 2.80264 0.746335 2.70553 0.872198 2.61254M0.5 0.500031L8.85705 8.93744" stroke-linecap="round"/></symbol><symbol id="eye-closed-tab" width="16" height="15" viewBox="0 0 16 15" fill="none"><path d="M10.4107 12.9874C9.59629 13.3656 8.69232 13.6118 7.74049 13.6118C4.15598 13.6118 1.25017 10.1207 1.25017 9.23367C1.25017 8.73085 2.18382 7.39135 3.6455 6.32525M13.452 10.6368C13.9487 10.0392 14.2308 9.51004 14.2308 9.23367C14.2308 8.34661 11.325 4.85553 7.74049 4.85553C9.31767 4.85553 10.5962 6.12387 10.5962 7.68844M7.74046 10.5214C6.16328 10.5214 4.88472 9.25302 4.88472 7.68844M14.75 4.85562C12.7732 3.21954 10.4653 2.28025 8.0001 2.28025C7.11158 2.28025 6.2435 2.40227 5.40397 2.63496M1.25017 4.85562C1.43341 4.70396 1.6195 4.5583 1.8083 4.41881M1.25 1.25005L13.7856 13.9062" stroke-linecap="round"/></symbol><symbol id="eye-open-desk" width="20" height="16" viewBox="0 0 20 16" fill="none"><path d="M9.65385 3.90906C4.87446 3.90906 1 8.53029 1 9.70451C1 10.8787 4.87446 15.5 9.65385 15.5C14.4332 15.5 18.3077 10.8787 18.3077 9.70451C18.3077 8.53029 14.4332 3.90906 9.65385 3.90906ZM9.65385 3.90906C7.55092 3.90906 5.84619 5.58799 5.84619 7.65906C5.84619 9.73013 7.55095 11.4091 9.65388 11.4091C11.7568 11.4091 13.4616 9.73013 13.4616 7.65906C13.4616 5.58799 11.7568 3.90906 9.65385 3.90906ZM19 3.90909C16.3642 1.74337 13.2869 0.5 10 0.5C6.71309 0.5 3.63584 1.74337 1 3.90909" stroke-linecap="round"/></symbol><symbol id="eye-open-mob" width="10" height="10" viewBox="0 0 10 10" fill="none"><path d="M4.82692 2.95453C2.43723 2.95453 0.5 5.26514 0.5 5.85226C0.5 6.43937 2.43723 8.74998 4.82692 8.74998C7.21662 8.74998 9.15385 6.43937 9.15385 5.85226C9.15385 5.26514 7.21662 2.95453 4.82692 2.95453ZM4.82692 2.95453C3.77546 2.95453 2.9231 3.79399 2.9231 4.82953C2.9231 5.86506 3.77548 6.70453 4.82694 6.70453C5.87841 6.70453 6.73079 5.86506 6.73079 4.82953C6.73079 3.79399 5.87839 2.95453 4.82692 2.95453ZM9.5 2.95455C8.18208 1.87169 6.64345 1.25 5 1.25C3.35655 1.25 1.81792 1.87169 0.5 2.95455" stroke-linecap="round"/></symbol><symbol id="eye-open-tab" width="16" height="14" viewBox="0 0 16 14" fill="none"><path d="M7.74039 3.93179C4.15584 3.93179 1.25 7.39772 1.25 8.27838C1.25 9.15905 4.15584 12.625 7.74039 12.625C11.3249 12.625 14.2308 9.15905 14.2308 8.27838C14.2308 7.39772 11.3249 3.93179 7.74039 3.93179ZM7.74039 3.93179C6.16319 3.93179 4.88464 5.19099 4.88464 6.74429C4.88464 8.29759 6.16322 9.55679 7.74041 9.55679C9.31761 9.55679 10.5962 8.29759 10.5962 6.74429C10.5962 5.19099 9.31758 3.93179 7.74039 3.93179ZM14.75 3.93182C12.7731 2.30753 10.4652 1.375 8 1.375C5.53482 1.375 3.22688 2.30753 1.25 3.93182" stroke-linecap="round"/></symbol></svg>