<svg xmlns="http://www.w3.org/2000/svg" aria-hidden="true" style="position:absolute;width:0;height:0;overflow:hidden">
  <defs>
    <symbol id="icon-edit-article" viewBox="0 0 32 32">
      <path stroke-linecap="round" stroke-linejoin="round" stroke-width="2" d="M9.423 30.25H1.75v-7.688L17.644 6.637M9.423 30.25H30.25m-20.827 0 15.894-15.925m-7.673-7.688 3.288-3.295c2.119-2.123 5.554-2.123 7.673 0s2.119 5.565 0 7.688l-3.288 3.295m-7.673-7.688 7.673 7.688"/>
    </symbol>
    <symbol id="icon-favorite-article" viewBox="0 0 26 32">
      <path stroke-linecap="round" stroke-linejoin="round" stroke-width="1.882" d="M13.171.941c2.379 0 4.562.228 6.292.491 2.191.333 3.908 1.834 4.397 3.932.59 2.532 1.169 6.385 1.07 11.559-.11 5.709-.943 9.829-1.746 12.516-.217.727-.72 1.101-1.289 1.197-.594.1-1.328-.098-1.925-.691-1.086-1.081-2.329-2.248-3.476-3.151-.572-.45-1.142-.852-1.671-1.145-.499-.277-1.083-.528-1.653-.528-.56 0-1.165.247-1.693.518-.563.289-1.186.686-1.824 1.136-1.277.902-2.692 2.07-3.938 3.153-.658.571-1.432.706-2.042.54-.589-.16-1.086-.613-1.239-1.401C1.909 26.36 1.41 22.362 1.41 16.94c0-5.409.557-9.224 1.112-11.68.46-2.035 2.12-3.485 4.255-3.814a42.287 42.287 0 0 1 6.392-.505z"/>
    </symbol>
 <symbol id="icon-alert" viewBox="0 0 33 32">
      <path stroke-linecap="round" stroke-width="1.6" d="M16.4 22.756v1.689m0-16.889v10.133M31.6 16c0 8.395-6.805 15.2-15.2 15.2S1.2 24.395 1.2 16 8.005.8 16.4.8 31.6 7.605 31.6 16z"/>
    </symbol>
  </defs>
</svg>
