<svg aria-hidden="true" style="position: absolute; width: 0; height: 0; overflow: hidden;" version="1.1" xmlns="http://www.w3.org/2000/svg" xmlns:xlink="http://www.w3.org/1999/xlink">
<defs>
<symbol id="icon-Icon" viewBox="0 0 32 32">
<path stroke-linejoin="round" stroke-linecap="round" stroke-miterlimit="4" stroke-width="1.28" d="M15.996 5.637c1.618 0 3.103 0.155 4.279 0.334 1.49 0.227 2.657 1.248 2.99 2.674 0.401 1.722 0.794 4.342 0.727 7.859-0.074 3.884-0.64 6.684-1.188 8.512-0.147 0.494-0.489 0.749-0.876 0.814-0.404 0.068-0.904-0.067-1.309-0.47-0.737-0.736-1.583-1.53-2.363-2.143-0.333-0.271-0.704-0.528-1.095-0.757l-0.042-0.023c-0.339-0.188-0.736-0.358-1.124-0.358-0.381 0-0.792 0.168-1.152 0.352-0.381 0.197-0.806 0.467-1.239 0.773-0.869 0.613-1.83 1.408-2.678 2.144-0.448 0.388-0.973 0.48-1.389 0.367-0.401-0.109-0.739-0.417-0.842-0.952-0.358-1.841-0.696-4.559-0.696-8.247 0-3.677 0.379-6.272 0.755-7.942 0.314-1.384 1.443-2.369 2.895-2.593 1.303-0.214 2.807-0.339 4.34-0.344h0.005z"></path>
</symbol>
<symbol id="icon-Icon-2" viewBox="0 0 32 32">
<path stroke-linejoin="round" stroke-linecap="round" stroke-miterlimit="4" stroke-width="1.28" d="M6.88 24.998l18.232-18.24M25.112 6.758h-9.819M25.112 6.758v9.818"></path>
</symbol>
</defs>
</svg>
