<svg aria-hidden="true" style="position: absolute; width: 0; height: 0; overflow: hidden;" version="1.1" xmlns="http://www.w3.org/2000/svg" xmlns:xlink="http://www.w3.org/1999/xlink">
<defs>
<symbol id="icon-logo-min" viewBox="0 0 132 32">
<path d="M122.572 6.365c0.556-0.061 1.166-0.056 1.725-0.014 2.18 0.163 3.761 1.127 5.158 2.759-0.042-0.82-0.089-1.629-0.042-2.451 0.937-0.062 1.884-0.032 2.824-0.030l-0.002 11.587c0.004 2.324 0.209 4.824-0.193 7.111-0.231 1.32-0.694 2.618-1.515 3.69-1.116 1.46-2.524 2.060-4.303 2.29 0.643-0.767 1.259-1.544 1.772-2.404 1.337-2.811 1.358-5.547 1.397-8.583-1.172 1.39-2.412 2.324-4.235 2.663-0.451 0.087-0.969 0.137-1.499 0.137-1.746 0-3.365-0.542-4.699-1.467l0.027 0.018c-1.753-1.214-2.927-3.237-3.291-5.32-0.401-2.294 0.059-4.775 1.408-6.69s3.198-2.898 5.465-3.296zM125.111 20.192c2.575-0.508 4.491-2.749 4.491-5.436 0-3.057-2.479-5.536-5.536-5.536-0.424 0-0.836 0.048-1.233 0.138l0.037-0.007c-2.501 0.567-4.341 2.772-4.341 5.405 0 3.057 2.479 5.536 5.536 5.536 0.37 0 0.731-0.036 1.081-0.105l-0.035 0.006zM79.456 6.323c4.644-0.697 8.974 2.508 9.665 7.154s-2.523 8.972-7.17 9.654c-4.637 0.682-8.951-2.522-9.639-7.158-0.059-0.375-0.092-0.807-0.092-1.247 0-4.248 3.117-7.767 7.188-8.397l0.048-0.006zM81.668 20.227c2.61-0.484 4.56-2.743 4.56-5.457 0-3.063-2.483-5.545-5.545-5.545-0.348 0-0.689 0.032-1.020 0.094l0.034-0.005c-2.61 0.484-4.56 2.743-4.56 5.457 0 3.062 2.483 5.545 5.545 5.545 0.348 0 0.689-0.032 1.020-0.094l-0.034 0.005zM52.122 6.358c0.66-0.030 1.348-0.063 2.002 0.048 1.86 0.317 2.832 1.424 3.858 2.885 0.288-0.471 0.622-0.922 1.008-1.317 1.060-1.084 2.524-1.632 4.031-1.64 1.619-0.009 3.239 0.403 4.408 1.582 0.696 0.715 1.205 1.616 1.446 2.621l0.008 0.039c0.412 1.711 0.236 3.666 0.234 5.424l0.005 6.487-2.94-0.007-0.005-6.255c0.001-1.426 0.132-3.004-0.16-4.404-0.116-0.56-0.338-1.073-0.718-1.506-0.58-0.662-1.549-1.104-2.428-1.129-1.064-0.032-2.178 0.249-2.948 1.019-0.524 0.523-0.858 1.206-1.038 1.92-0.438 1.735-0.215 5.136-0.209 7.054l0.021 3.303-2.97 0.018 0.020-6.315c0.006-1.419 0.164-3.036-0.155-4.415-0.145-0.628-0.441-1.225-0.898-1.684-0.66-0.661-1.552-0.902-2.467-0.895-0.981 0.009-1.953 0.306-2.645 1.027-0.562 0.584-0.902 1.372-1.070 2.158-0.284 1.328-0.156 2.813-0.156 4.167l0.008 5.949-2.994-0.012c0.145-1.78 0.012-4.175 0.012-6.036 0.001-3.251 0.095-6.54-0.021-9.787 1.002 0.001 2.018 0.038 3.015-0.051l0.004 2.194c1.069-1.336 2.064-2.043 3.742-2.443zM23.049 6.369c0.329-0.039 0.676-0.031 1.007-0.035 1.808-0.018 3.686 0.443 5.003 1.748 0.624 0.624 1.084 1.412 1.309 2.293l0.007 0.035c0.427 1.665 0.231 3.637 0.234 5.348l0.006 6.734-2.941-0.009 0.012-1.927c-0.889 1.084-1.923 1.89-3.284 2.278-1.673 0.478-3.86 0.342-5.381-0.55-1.233-0.724-1.84-1.728-2.216-3.072-0.101-1.123 0.004-2.191 0.637-3.158 1.354-2.071 4.097-2.377 6.323-2.76 1.311-0.226 2.623-0.436 3.922-0.731-0.025-0.712-0.129-1.406-0.502-2.027-0.437-0.725-1.156-1.197-1.97-1.396-1.086-0.263-2.462-0.161-3.416 0.434-0.898 0.559-1.314 1.412-1.557 2.402-1.011-0.050-2.013-0.028-3.024-0.005 0.293-1.126 0.58-2.208 1.268-3.17 1.126-1.573 2.724-2.123 4.564-2.432zM20.635 19.924c1.117 0.67 2.518 0.769 3.765 0.448 1.115-0.287 2.216-0.944 2.791-1.969 0.574-1.019 0.504-2.157 0.493-3.282l-0.093-0.073c-0.97 0.082-1.923 0.281-2.882 0.442-1.423 0.239-3.405 0.3-4.434 1.453-0.397 0.446-0.523 0.956-0.473 1.543 0.054 0.633 0.37 1.029 0.832 1.438zM0 0.308c0.98 0.047 1.956-0.004 2.934 0.030-0.076 2.869 0.133 5.765-0.048 8.628 0.228-0.288 0.447-0.585 0.69-0.862 0.962-1.1 2.404-1.699 3.846-1.762 1.664-0.074 3.308 0.305 4.56 1.455 0.806 0.746 1.398 1.711 1.684 2.8l0.009 0.041c0.372 1.408 0.26 2.987 0.26 4.433-0.002 2.462-0.1 4.964 0.020 7.424l-2.902-0.012c-0.065-2.51-0.020-5.034-0.027-7.547 0.025-1.577 0.142-3.449-1.036-4.671-0.729-0.756-1.723-1.076-2.755-1.091-1.145-0.016-2.249 0.326-3.065 1.156-0.472 0.485-0.822 1.091-0.998 1.768l-0.006 0.028c-0.375 1.436-0.228 3.134-0.228 4.615-0.004 1.914 0.004 3.828 0.028 5.742l-2.929 0.006c-0.036-7.384 0.148-14.8-0.036-22.18zM99.205 6.362c0.279-0.012 0.558-0.021 0.837-0.025 1.612-0.016 3.229 0.424 4.396 1.585 0.76 0.756 1.231 1.731 1.477 2.764 0.414 1.742 0.26 3.634 0.258 5.413l0.002 6.395-2.994-0.004c0.029-1.441 0.001-2.889 0.010-4.332 0.011-1.831 0.242-4.658-0.242-6.358-0.268-0.937-0.82-1.798-1.704-2.258-1.091-0.566-2.553-0.425-3.689-0.062-0.459 0.236-0.859 0.482-1.232 0.85-0.596 0.588-0.863 1.282-1.037 2.083-0.304 1.401-0.192 2.926-0.191 4.353l0.011 5.734c-0.987-0.018-1.974-0.005-2.961-0.005 0.082-5.271 0.011-10.558 0.014-15.833l2.942-0.004c0.005 0.754-0.005 1.508-0.007 2.262 1.068-1.559 2.312-2.16 4.11-2.558zM41.111 6.358c0.588-0.027 1.18-0.018 1.769-0.020 0.020 1.072 0.004 2.147 0.003 3.219-0.222-0.009-0.444-0.015-0.668-0.021-1.34-0.033-2.79 0.141-3.788 1.137-0.529 0.526-0.85 1.215-1.020 1.935-0.324 1.364-0.219 2.874-0.22 4.267l0.018 5.617c-0.582 0.002-2.46 0.213-2.945-0.116l-0.025-0.297c-0.111-5.124-0.026-10.277 0.006-15.404l3.002-0.017c-0.084 0.84-0.041 1.694-0.023 2.536 1.131-1.676 1.852-2.338 3.892-2.836zM109.614 6.667c0.988 0.006 1.975 0.006 2.963 0v15.828c-0.294-0.004-0.642-0.006-0.99-0.006-0.699 0-1.396 0.008-2.091 0.024l0.103-0.002c0.066-5.28 0.015-10.565 0.014-15.845zM110.484 0.304c0.364-0.020 0.764-0.064 1.122 0.021 0.48 0.115 0.932 0.464 1.163 0.899 0.228 0.435 0.261 0.944 0.093 1.404-0.227 0.608-0.666 0.92-1.232 1.182-0.381 0.023-0.762 0.043-1.132-0.073-0.482-0.151-0.913-0.498-1.135-0.954-0.109-0.215-0.173-0.469-0.173-0.737 0-0.194 0.034-0.381 0.095-0.554l-0.004 0.012c0.212-0.604 0.653-0.925 1.203-1.2z"></path>
</symbol>
<symbol id="icon-burger-regular" viewBox="0 0 44 32">
<path stroke-linejoin="miter" stroke-linecap="round" stroke-miterlimit="4" stroke-width="2.4615" d="M1.231 1.231h41.846M1.231 30.769h41.846M1.231 16h41.846"></path>
</symbol>
<symbol id="icon-close" viewBox="0 0 32 32">
<path stroke-linejoin="round" stroke-linecap="round" stroke-miterlimit="4" stroke-width="1.6" d="M1.6 1.6l14.4 14.4M16 16l-14.4 14.4M16 16l14.4 14.4M16 16l14.4-14.4"></path>
</symbol>

<symbol id="icon-Vector-1" viewBox="0 0 34 32">
<path  d="M11.323 0.8h-5.846c-2.583 0-4.677 2.094-4.677 4.677v21.046c0 2.583 2.094 4.677 4.677 4.677h5.846M8.8 16h23.385M32.185 16l-7.015 7.015M32.185 16l-7.015-7.015"></path>
</symbol>

</defs>
</svg>
