<svg version="1.1" xmlns="http://www.w3.org/2000/svg" width="39" height="32" viewBox="0 0 39 32">
    <path fill="none" stroke-linejoin="miter" stroke-linecap="butt" stroke-miterlimit="4" stroke-width="0.6598" stroke="#000" d="M23.669 17.462c0 2.018-1.956 3.654-4.37 3.654s-4.37-1.636-4.37-3.654c0-2.018 1.956-3.654 4.37-3.654s4.37 1.636 4.37 3.654z"></path>
    <path fill="none" stroke-linejoin="miter" stroke-linecap="butt" stroke-miterlimit="4" stroke-width="0.6598" stroke="#000" d="M7.938 22.5v-8.906c0-1.497 1.451-2.71 3.241-2.71 1.227 0 2.35-0.58 2.899-1.498l0.734-1.228c0.608-1.016 1.85-1.658 3.209-1.658h2.557c1.359 0 2.601 0.642 3.209 1.658l0.734 1.228c0.549 0.918 1.671 1.498 2.898 1.498 1.79 0 3.241 1.213 3.241 2.71v8.906c0 1.657-1.606 3-3.588 3h-15.546c-1.981 0-3.588-1.343-3.588-3z"></path>
</svg>